<?xml version="1.0" standalone="no"?>
<!DOCTYPE svg PUBLIC "-//W3C//DTD SVG 20010904//EN"
 "http://www.w3.org/TR/2001/REC-SVG-20010904/DTD/svg10.dtd">
<svg version="1.0" xmlns="http://www.w3.org/2000/svg"
 width="512.000000pt" height="512.000000pt" viewBox="0 0 512.000000 512.000000"
 preserveAspectRatio="xMidYMid meet">
<metadata>
Created by potrace 1.11, written by Peter Selinger 2001-2013
</metadata>
<g transform="translate(0.000000,512.000000) scale(0.100000,-0.100000)"
fill="#000000" stroke="none">
<path d="M0 3707 l0 -1414 56 8 c132 18 233 105 343 298 35 61 298 625 583
1254 286 628 525 1148 530 1155 6 6 23 12 38 12 15 0 32 -6 37 -12 6 -7 221
-429 479 -937 l469 -924 3 57 c3 52 5 56 27 56 22 0 25 -4 25 -40 0 -133 113
-256 277 -301 87 -25 141 -27 1046 -45 l787 -16 56 33 c75 45 159 122 189 174
14 23 31 71 38 106 11 52 16 64 32 64 19 0 20 -9 20 -335 0 -184 -3 -345 -7
-358 -5 -13 -39 -42 -82 -70 -41 -26 -450 -247 -909 -492 -460 -245 -833 -448
-829 -451 4 -3 399 -176 877 -384 479 -207 884 -386 902 -396 17 -11 34 -27
38 -37 4 -9 9 -160 10 -334 l2 -318 -23 0 c-20 0 -24 5 -24 33 0 93 -42 219
-87 259 -48 43 -114 62 -218 60 -153 -1 -1809 -91 -1899 -102 -147 -19 -184
-58 -194 -205 -5 -81 -6 -85 -28 -85 l-24 0 0 521 0 520 23 -3 c20 -3 23 -10
29 -88 10 -141 45 -190 142 -204 38 -6 1734 78 1741 86 2 2 -429 188 -958 413
-951 405 -962 411 -962 438 0 28 34 47 963 535 609 321 955 508 940 509 -13 1
-354 10 -758 18 -782 17 -805 16 -913 -28 l-37 -16 42 -73 c99 -176 180 -282
242 -316 17 -9 56 -24 86 -32 43 -12 55 -19 55 -35 0 -19 -6 -20 -125 -19
-187 2 -740 2 -860 0 -100 -1 -105 0 -108 20 -3 20 3 23 50 28 114 14 132 19
155 42 26 26 31 85 12 145 -6 19 -92 199 -192 402 l-181 367 -540 -2 -541 -3
-97 -215 c-112 -249 -132 -318 -126 -429 11 -185 125 -279 371 -306 53 -6 57
-8 57 -32 l0 -25 -217 9 c-254 9 -410 9 -656 -1 l-177 -8 0 -1119 0 -1119
2560 0 2560 0 0 2560 0 2560 -2560 0 -2560 0 0 -1413z"/>
<path d="M1132 3877 c-122 -271 -222 -495 -222 -499 0 -5 214 -8 475 -8 l475
0 -144 288 c-79 158 -193 382 -253 499 l-109 212 -222 -492z"/>
</g>
</svg>
