<?xml version="1.0" standalone="no"?>
<!DOCTYPE svg PUBLIC "-//W3C//DTD SVG 20010904//EN"
 "http://www.w3.org/TR/2001/REC-SVG-20010904/DTD/svg10.dtd">
<svg version="1.0" xmlns="http://www.w3.org/2000/svg"
 width="512.000000pt" height="512.000000pt" viewBox="0 0 512.000000 512.000000"
 preserveAspectRatio="xMidYMid meet">
<metadata>
Created by potrace 1.11, written by Peter Selinger 2001-2013
</metadata>
<g transform="translate(0.000000,512.000000) scale(0.100000,-0.100000)"
fill="#000000" stroke="none">
<path d="M2117 4472 c-22 -24 -62 -101 -71 -135 -4 -19 -16 -32 -36 -39 -32
-11 -31 -28 1 -28 15 0 18 -5 14 -22 -5 -26 -12 -72 -21 -150 -12 -93 -50
-157 -78 -127 -14 14 -47 106 -53 144 -4 28 -39 54 -63 48 -29 -8 -57 -46 -81
-114 -12 -33 -23 -58 -25 -57 -1 2 -5 35 -9 73 -3 38 -9 73 -13 77 -16 16 -41
-4 -52 -40 -7 -21 -23 -68 -37 -106 -17 -45 -22 -71 -15 -74 24 -8 -48 -167
-81 -178 -13 -4 -27 1 -41 15 l-21 22 32 57 c23 43 30 67 28 96 -7 64 -37 82
-83 50 -38 -27 -55 -73 -56 -152 0 -61 -3 -73 -19 -78 -21 -7 -65 20 -74 44
-10 28 -45 62 -64 62 -22 0 -38 -26 -32 -51 3 -10 21 -28 40 -40 42 -26 51
-48 50 -119 0 -120 -27 -106 -117 59 -27 50 -45 59 -74 38 -17 -13 -19 -26
-17 -118 1 -57 4 -105 6 -108 12 -11 18 13 21 75 1 36 5 69 8 72 3 3 6 0 6 -7
0 -24 49 -111 79 -140 21 -21 36 -27 55 -24 43 9 59 46 60 145 l1 88 32 0 c17
0 35 5 38 10 8 13 25 13 25 -1 0 -17 43 -48 66 -49 28 0 100 53 117 87 23 45
46 124 52 177 3 28 8 52 10 55 5 5 7 -8 10 -109 3 -90 3 -90 23 -90 35 0 56
26 58 71 3 51 47 186 68 207 12 12 16 7 31 -44 21 -74 53 -131 75 -137 26 -7
75 20 90 49 17 30 30 31 30 0 0 -50 83 -135 130 -132 29 1 26 20 -4 24 -13 2
-29 9 -34 15 -11 13 -42 113 -37 119 1 1 5 34 9 71 8 83 14 126 27 194 9 48
13 53 47 64 20 6 42 15 47 19 6 5 25 10 42 13 24 4 36 1 42 -11 12 -22 35 -3
29 24 -5 28 -54 28 -123 0 -70 -29 -78 -21 -45 43 11 23 18 41 15 41 -2 0 0
11 5 25 8 21 7 25 -9 25 -10 0 -25 -8 -34 -18z m-653 -537 c4 -14 0 -41 -8
-60 -15 -36 -35 -47 -37 -20 -1 8 -2 21 -2 28 -2 20 21 77 31 77 6 0 13 -11
16 -25z"/>
<path d="M2708 4276 c-10 -7 -19 -26 -20 -41 -2 -20 -16 -39 -52 -67 -27 -22
-61 -54 -75 -73 -36 -46 -75 -69 -89 -52 -13 16 -1 75 28 134 41 85 -14 103
-69 23 -36 -53 -154 -170 -171 -170 -16 0 -12 20 25 110 36 88 41 115 26 125
-19 11 -81 -29 -113 -74 -17 -25 -40 -52 -50 -59 -19 -14 -25 -42 -9 -42 5 0
24 17 42 38 18 20 30 30 27 22 -3 -8 -16 -45 -28 -83 -22 -63 -22 -68 -6 -86
28 -30 61 -15 151 67 71 66 70 66 67 17 -4 -40 -1 -45 27 -60 45 -23 89 -4
156 66 63 66 113 109 126 109 14 0 11 -31 -5 -49 -8 -9 -19 -40 -25 -70 -10
-46 -9 -57 4 -71 24 -27 57 -29 112 -8 26 10 49 18 49 18 1 0 4 -13 7 -28 7
-34 41 -52 102 -52 54 0 95 15 95 34 0 13 -4 13 -35 0 -51 -21 -101 -7 -97 27
6 35 17 45 59 47 44 3 118 43 133 72 13 25 -1 56 -30 65 -49 16 -164 -33 -193
-81 -17 -30 -73 -74 -101 -80 -50 -11 -52 27 -4 98 28 41 23 75 -12 93 -35 18
-36 22 -14 46 31 35 -1 64 -38 35z m362 -156 c0 -13 -41 -50 -65 -59 -10 -5
-27 -6 -37 -3 -24 6 -8 26 41 52 40 21 61 25 61 10z"/>
<path d="M3360 3939 c-52 -23 -98 -64 -111 -98 -14 -35 7 -78 45 -95 54 -24
66 -26 154 -26 48 1 96 1 106 1 10 0 32 7 47 15 38 19 36 14 -7 -35 -69 -76
-80 -122 -41 -178 23 -35 44 -45 32 -15 -23 54 -12 78 69 155 63 60 90 74 152
82 74 9 189 42 242 69 63 32 90 56 97 86 9 38 -41 64 -103 55 -81 -12 -218
-72 -314 -137 -96 -64 -272 -95 -373 -64 -25 7 -41 19 -43 30 -9 44 122 128
188 121 14 -2 31 -4 38 -4 17 -1 15 -30 -3 -37 -30 -12 -14 -24 26 -19 48 6
79 21 79 39 0 22 -13 27 -36 11 -20 -13 -22 -12 -27 5 -14 56 -131 77 -217 39z
m740 -36 c-1 -17 -39 -52 -78 -72 -51 -26 -232 -70 -232 -56 0 5 136 72 240
119 37 17 70 21 70 9z"/>
<path d="M751 3894 c-22 -27 -22 -55 0 -111 15 -41 89 -153 126 -191 l32 -34
-35 -34 c-43 -44 -47 -85 -18 -176 20 -61 86 -121 127 -115 17 2 27 -1 27 -9
0 -36 -88 -13 -142 39 -15 14 -35 24 -45 22 -10 -2 -21 -4 -25 -4 -13 -2 -9
-51 6 -79 15 -28 40 -116 41 -141 0 -27 -23 -22 -48 11 -60 78 -80 178 -45
227 15 21 20 23 42 13 31 -14 46 2 23 25 -24 24 -81 1 -109 -45 -36 -57 -33
-160 6 -228 43 -76 104 -111 146 -84 19 12 17 98 -4 155 -8 22 -13 41 -11 43
2 2 17 -4 34 -12 75 -39 148 -5 151 70 4 106 3 142 -4 178 l-9 39 34 -26 c19
-14 46 -30 59 -35 45 -17 110 24 110 69 0 7 -9 3 -20 -9 -12 -12 -23 -22 -26
-22 -2 0 -26 11 -52 24 -80 42 -112 79 -138 163 -14 41 -34 96 -46 121 -12 26
-22 49 -23 52 -2 17 -60 90 -85 108 -38 29 -54 28 -79 -4z m96 -51 c45 -58 73
-112 94 -177 26 -80 24 -85 -12 -40 -17 21 -34 41 -38 44 -5 3 -14 15 -20 28
-7 13 -20 32 -28 42 -14 16 -53 113 -53 132 0 20 31 4 57 -29z m128 -371 c25
-59 37 -173 19 -179 -35 -12 -114 139 -98 190 17 56 53 51 79 -11z"/>
<path d="M3703 3647 c-6 -10 17 -18 60 -20 33 -2 41 -9 14 -13 -7 -1 -34 -9
-62 -18 -53 -18 -85 -41 -85 -61 0 -16 32 -44 56 -48 10 -2 54 -9 97 -17 42
-7 77 -16 77 -20 0 -3 -11 -13 -25 -20 -27 -14 -41 -49 -31 -75 14 -38 123
-72 216 -67 32 2 30 0 -25 -23 -77 -32 -98 -59 -76 -94 8 -13 15 -12 50 3 32
15 53 17 101 12 62 -7 142 -36 154 -55 12 -19 -39 -34 -131 -39 -97 -5 -135 6
-113 33 7 9 6 16 -4 24 -22 18 -40 -11 -29 -46 14 -44 91 -81 166 -81 113 0
202 52 175 102 -6 11 -16 24 -22 28 -24 17 -123 50 -161 55 -22 2 -41 6 -43 8
-2 2 21 8 51 14 46 10 60 9 98 -7 108 -46 272 -59 352 -28 40 15 47 22 47 44
-1 32 -16 54 -50 72 -35 19 -251 25 -336 10 -38 -6 -81 -14 -96 -17 -15 -2
-46 1 -70 8 -24 6 -72 12 -108 13 -72 2 -92 9 -83 31 6 18 86 55 117 55 47 0
94 48 65 65 -5 4 -64 8 -131 11 -106 3 -142 6 -180 13 -20 3 -5 30 20 35 81
19 192 60 192 72 0 27 -61 46 -153 48 -49 0 -91 -2 -94 -7z m850 -389 c33 -13
34 -21 4 -41 -30 -20 -184 -21 -238 -1 -22 7 -41 13 -44 13 -19 1 -55 14 -55
20 0 4 21 9 48 10 26 1 74 6 107 10 70 8 138 4 178 -11z"/>
<path d="M2355 3628 c-4 -16 -47 -50 -135 -108 -84 -55 -129 -91 -130 -103 0
-23 11 -17 154 80 l109 74 -7 -32 c-3 -17 -6 -41 -6 -53 0 -19 -76 -77 -234
-178 -8 -5 -7 -11 1 -19 9 -9 25 -3 68 27 31 21 78 54 105 71 l50 33 0 -60 c0
-63 -12 -82 -69 -114 -61 -34 -170 -113 -170 -123 -2 -28 28 -13 172 86 l58
40 -2 -52 c-2 -52 -2 -52 -101 -147 -92 -90 -114 -120 -87 -120 6 0 46 34 88
75 43 41 80 75 84 75 3 0 4 -8 3 -17 -2 -10 -7 -59 -11 -110 -6 -83 -5 -92 12
-101 10 -6 27 -6 41 -1 24 9 23 3 25 172 0 37 4 67 8 67 8 0 47 -35 132 -118
36 -35 50 -44 56 -34 6 10 -17 38 -77 95 -46 45 -91 88 -98 95 -8 7 -14 23
-15 35 -2 29 2 71 6 75 2 2 46 -26 98 -62 89 -62 127 -79 127 -57 0 6 -52 45
-115 87 l-115 77 0 65 0 64 28 -18 c117 -76 138 -90 150 -101 15 -14 52 -27
59 -20 10 11 -8 26 -121 101 l-114 75 1 56 c1 30 5 55 9 55 4 0 52 -31 108
-70 127 -88 139 -95 152 -82 7 7 -16 28 -68 64 -44 29 -90 61 -104 71 -14 9
-40 27 -57 38 -18 12 -33 27 -33 34 0 7 -7 18 -15 25 -12 10 -15 8 -20 -12z"/>
<path d="M3340 3481 c-156 -79 -200 -105 -200 -119 0 -10 11 -12 45 -6 26 3
45 2 45 -3 0 -5 -196 -206 -435 -445 l-434 -435 -94 91 c-52 50 -206 200 -343
333 -137 132 -282 272 -322 311 -39 38 -72 73 -72 77 0 4 23 4 51 1 65 -8 62
6 -12 55 -79 52 -250 140 -260 133 -15 -9 1 -54 54 -154 90 -170 125 -210 114
-130 -3 22 -1 43 5 46 5 3 31 -16 57 -43 43 -42 201 -196 653 -634 l130 -126
-385 -384 -384 -385 -64 1 c-81 1 -99 -3 -92 -22 4 -9 18 -14 42 -13 20 1 46
2 59 1 21 -1 22 -2 7 -17 -15 -15 -49 -18 -140 -11 -20 1 -31 -3 -33 -14 -2
-13 8 -16 55 -18 31 -1 59 -4 62 -7 3 -2 -6 -12 -19 -21 -17 -12 -46 -17 -99
-17 -60 -1 -76 -4 -76 -16 0 -11 13 -14 55 -15 54 0 63 -6 52 -33 -10 -27 16
-37 47 -19 l28 17 7 -81 c6 -68 10 -80 24 -77 10 2 16 12 15 23 -1 11 -5 52
-9 90 -3 39 -8 73 -10 76 -2 4 5 14 15 23 12 11 18 12 18 4 2 -31 16 -124 20
-130 11 -19 31 -7 27 16 -23 128 -20 176 10 176 9 0 16 -21 21 -65 5 -48 11
-65 22 -65 12 0 14 13 9 76 -3 42 -9 80 -12 85 -5 9 753 779 767 779 4 0 56
-48 117 -107 281 -273 535 -520 622 -603 l94 -90 -2 -74 c-3 -71 7 -101 25
-74 4 7 9 24 9 38 1 14 2 36 3 50 l2 25 19 -24 c11 -12 18 -26 16 -30 -2 -3
-7 -34 -10 -68 -5 -52 -4 -63 8 -63 21 0 25 9 27 63 3 51 8 56 31 30 11 -13
14 -39 13 -95 -2 -70 0 -78 16 -78 11 0 18 3 18 8 -1 4 -1 31 0 61 1 44 3 51
15 42 17 -14 46 -4 46 17 0 8 -7 23 -15 32 -13 15 -11 16 28 19 91 5 114 8
125 15 23 14 1 26 -41 22 -96 -10 -158 -9 -169 2 -18 18 -8 21 65 23 59 2 67
4 67 21 0 18 -5 19 -67 12 -105 -10 -119 -10 -137 9 -10 9 -16 17 -14 17 2 1
32 3 68 7 63 5 91 16 77 29 -7 7 -118 6 -156 -1 -17 -3 -49 22 -144 115 -67
65 -156 151 -197 191 -325 312 -510 495 -510 503 0 12 861 876 874 876 4 0 5
-20 2 -44 -8 -51 5 -66 27 -32 9 13 22 29 29 37 7 8 22 32 34 54 12 22 40 74
62 115 23 41 42 78 42 83 0 18 -52 3 -140 -42z"/>
<path d="M1779 3419 c-17 -33 3 -69 39 -69 35 0 52 16 52 51 0 43 -70 57 -91
18z"/>
<path d="M2894 3413 c-8 -32 6 -57 35 -61 24 -4 61 23 61 44 0 22 -30 44 -61
44 -23 0 -30 -5 -35 -27z"/>
<path d="M1610 2722 c-8 -3 -17 -9 -21 -13 -4 -7 -5 -473 0 -517 1 -9 12 -12
34 -10 l32 3 1 108 c0 109 8 133 40 120 19 -7 92 34 111 63 19 29 25 113 11
161 -15 58 -138 108 -208 85z m126 -97 c21 -33 14 -110 -12 -130 -22 -17 -34
-18 -53 -6 -17 11 -24 117 -9 144 13 25 55 21 74 -8z"/>
<path d="M2924 2720 c-70 -15 -114 -74 -109 -146 3 -50 23 -82 78 -126 88 -71
117 -104 117 -136 0 -32 -38 -73 -63 -68 -33 7 -47 21 -53 52 -11 60 -76 67
-80 8 -4 -70 57 -124 141 -124 76 0 120 42 129 122 8 62 -13 91 -142 197 -73
60 -68 151 9 151 34 0 39 -4 56 -40 15 -33 22 -40 43 -38 20 2 26 9 28 35 6
63 -82 128 -154 113z"/>
<path d="M3156 2718 c-14 -8 -16 -38 -16 -268 0 -187 3 -261 12 -266 6 -4 59
-7 116 -6 109 0 124 6 115 43 -6 21 -5 21 -86 23 -31 1 -63 8 -70 15 -8 8 -12
54 -13 149 -2 299 -2 309 -23 315 -10 2 -26 0 -35 -5z"/>
<path d="M3505 2714 c-16 -7 -43 -26 -60 -44 l-30 -31 0 -166 c0 -209 7 -240
60 -270 77 -44 169 -20 199 52 12 27 15 74 13 210 l-3 176 -34 34 c-42 41
-101 57 -145 39z m89 -80 c17 -17 20 -53 18 -224 -2 -129 -6 -144 -34 -157
-28 -12 -74 1 -83 25 -3 9 -6 89 -5 176 0 133 3 163 17 178 20 22 66 23 87 2z"/>
<path d="M1281 2699 c-58 -38 -67 -74 -65 -258 1 -134 4 -166 19 -194 23 -43
66 -67 122 -67 78 0 133 51 133 124 0 34 -1 36 -35 36 -30 0 -35 -3 -35 -23 0
-33 -35 -67 -70 -67 -53 0 -61 27 -62 206 0 152 1 159 22 176 46 37 100 14
112 -47 2 -15 11 -20 33 -20 24 0 31 5 33 23 13 93 -123 166 -207 111z"/>
<path d="M2143 1921 c-59 -16 -144 -118 -158 -191 -11 -60 -15 -67 -40 -78
-27 -12 -81 2 -130 34 -46 30 -40 5 10 -41 42 -40 53 -45 94 -45 64 0 92 27
121 115 31 94 62 141 106 160 45 18 71 19 104 1 l25 -14 -28 -13 c-61 -28 -88
-151 -47 -209 44 -62 152 -75 243 -30 39 20 49 30 57 62 6 21 15 57 21 81 27
103 65 136 144 121 l36 -6 -19 -22 c-61 -66 -59 -144 5 -203 22 -22 43 -30 89
-37 26 -5 91 30 105 55 15 30 22 76 11 83 -5 3 -16 -12 -26 -33 -41 -95 -186
-69 -186 34 0 47 41 85 91 85 37 0 38 1 28 23 -11 23 -60 59 -89 64 -8 2 -36
3 -61 4 -91 2 -147 -50 -174 -163 -21 -83 -53 -122 -104 -126 -18 -1 -35 -3
-39 -3 -64 -9 -112 29 -112 90 0 58 36 97 96 104 52 5 67 16 58 41 -15 40
-159 76 -231 57z"/>
<path d="M1787 1114 c-64 -128 -64 -129 4 -159 34 -16 42 -16 49 -5 9 14 -14
39 -36 40 -20 0 -24 30 -8 56 12 17 24 24 42 22 32 -4 43 27 14 36 -23 8 -19
36 8 61 14 13 23 14 39 6 27 -15 51 -14 51 2 0 11 -82 57 -101 57 -2 0 -30
-52 -62 -116z"/>
<path d="M1598 1209 c-34 -19 -12 -89 28 -89 16 0 54 35 54 50 0 14 -38 50
-52 50 -7 0 -21 -5 -30 -11z"/>
<path d="M3110 1194 c-26 -48 19 -90 65 -60 29 19 32 47 7 69 -24 22 -58 18
-72 -9z"/>
<path d="M2883 1179 c-50 -19 -63 -88 -22 -125 10 -9 19 -28 19 -41 0 -37 28
-82 55 -89 24 -6 84 11 86 25 0 3 2 15 5 26 5 26 -14 72 -32 79 -8 3 -14 17
-14 31 0 61 -52 111 -97 94z m52 -68 c16 -32 12 -41 -22 -41 -32 0 -52 49 -27
67 21 15 30 10 49 -26z m45 -91 c0 -5 3 -15 6 -23 3 -8 -2 -22 -12 -31 -15
-16 -18 -16 -35 0 -21 19 -25 60 -6 67 16 5 47 -3 47 -13z"/>
<path d="M1962 1147 c-30 -36 -30 -61 1 -121 23 -44 28 -62 20 -75 -18 -28
-42 -25 -49 6 -13 50 -44 53 -44 4 0 -58 73 -85 115 -43 32 32 31 56 -4 116
-30 51 -31 81 -1 89 22 6 40 -10 40 -36 0 -22 35 -20 36 3 1 19 -16 53 -30 62
-18 12 -73 9 -84 -5z"/>
<path d="M2745 1115 c-14 -13 -25 -31 -25 -38 0 -19 25 -28 38 -15 7 7 14 -1
21 -28 6 -22 17 -65 26 -97 12 -45 20 -57 33 -55 9 3 17 8 16 14 -4 35 -69
244 -76 244 -5 0 -20 -11 -33 -25z"/>
<path d="M2100 1117 c0 -9 9 -19 20 -22 18 -6 20 -13 15 -50 -2 -23 -7 -49
-10 -56 -20 -57 -24 -131 -8 -136 11 -4 27 39 39 102 23 123 25 127 49 121 26
-7 43 10 28 25 -10 10 -26 14 -95 25 -30 5 -38 3 -38 -9z"/>
<path d="M2569 1091 c-24 -20 -27 -44 -15 -135 9 -63 21 -93 45 -105 32 -18
60 -13 86 15 27 29 27 54 -1 167 -1 4 -2 14 -3 22 -2 24 -39 55 -65 55 -13 0
-34 -8 -47 -19z m68 -33 c13 -16 32 -136 25 -160 -6 -23 -38 -23 -50 0 -5 9
-13 40 -17 67 -5 28 -10 57 -11 65 -6 32 34 53 53 28z"/>
<path d="M2397 1079 c-23 -17 -28 -28 -25 -58 2 -29 7 -37 27 -39 21 -3 23 -1
18 24 -9 49 15 72 43 40 9 -12 2 -34 -39 -113 -58 -111 -57 -116 31 -111 41 2
54 7 56 21 3 14 -4 17 -37 17 -46 0 -46 3 1 84 39 65 44 96 21 123 -28 34 -64
38 -96 12z"/>
<path d="M2242 848 c6 -18 28 -21 28 -4 0 9 -7 16 -16 16 -9 0 -14 -5 -12 -12z"/>
</g>
</svg>
